<svg width="114" height="12" viewBox="0 0 114 12" fill="none" xmlns="http://www.w3.org/2000/svg">
    <path d="M0.53 11C0.43 11 0.345 10.965 0.275 10.895C0.205 10.825 0.17 10.74 0.17 10.64V0.875C0.17 0.764999 0.2 0.674999 0.26 0.605C0.33 0.534999 0.42 0.499999 0.53 0.499999H4.88C6.05 0.499999 6.92 0.76 7.49 1.28C8.07 1.79 8.36 2.49 8.36 3.38C8.36 3.9 8.23 4.345 7.97 4.715C7.72 5.075 7.425 5.335 7.085 5.495C7.505 5.685 7.855 5.995 8.135 6.425C8.425 6.855 8.57 7.345 8.57 7.895C8.57 8.825 8.255 9.575 7.625 10.145C7.005 10.715 6.13 11 5 11H0.53ZM4.61 4.805C5.13 4.805 5.525 4.68 5.795 4.43C6.065 4.18 6.2 3.845 6.2 3.425C6.2 2.995 6.065 2.665 5.795 2.435C5.525 2.195 5.13 2.075 4.61 2.075H2.255V4.805H4.61ZM4.76 9.41C5.28 9.41 5.685 9.27 5.975 8.99C6.265 8.7 6.41 8.335 6.41 7.895C6.41 7.445 6.265 7.08 5.975 6.8C5.685 6.51 5.28 6.365 4.76 6.365H2.255V9.41H4.76ZM13.1682 11.15C12.2482 11.15 11.5232 10.85 10.9932 10.25C10.4632 9.64 10.1982 8.815 10.1982 7.775V3.56C10.1982 3.46 10.2332 3.375 10.3032 3.305C10.3732 3.235 10.4582 3.2 10.5582 3.2H11.8782C11.9882 3.2 12.0732 3.235 12.1332 3.305C12.2032 3.365 12.2382 3.45 12.2382 3.56V7.685C12.2382 8.925 12.7832 9.545 13.8732 9.545C14.3932 9.545 14.8032 9.38 15.1032 9.05C15.4132 8.72 15.5682 8.265 15.5682 7.685V3.56C15.5682 3.46 15.6032 3.375 15.6732 3.305C15.7432 3.235 15.8282 3.2 15.9282 3.2H17.2482C17.3582 3.2 17.4432 3.235 17.5032 3.305C17.5732 3.365 17.6082 3.45 17.6082 3.56V10.64C17.6082 10.74 17.5732 10.825 17.5032 10.895C17.4432 10.965 17.3582 11 17.2482 11H16.0332C15.9332 11 15.8482 10.965 15.7782 10.895C15.7082 10.825 15.6732 10.74 15.6732 10.64V10.025C15.1132 10.775 14.2782 11.15 13.1682 11.15ZM19.8896 1.91C19.7896 1.91 19.7046 1.875 19.6346 1.805C19.5646 1.735 19.5296 1.65 19.5296 1.55V0.47C19.5296 0.37 19.5646 0.285 19.6346 0.214999C19.7046 0.145 19.7896 0.11 19.8896 0.11H21.2546C21.3546 0.11 21.4396 0.145 21.5096 0.214999C21.5896 0.285 21.6296 0.37 21.6296 0.47V1.55C21.6296 1.65 21.5946 1.735 21.5246 1.805C21.4546 1.875 21.3646 1.91 21.2546 1.91H19.8896ZM19.9496 11C19.8496 11 19.7646 10.965 19.6946 10.895C19.6246 10.825 19.5896 10.74 19.5896 10.64V3.56C19.5896 3.46 19.6246 3.375 19.6946 3.305C19.7646 3.235 19.8496 3.2 19.9496 3.2H21.1946C21.3046 3.2 21.3896 3.235 21.4496 3.305C21.5196 3.365 21.5546 3.45 21.5546 3.56V10.64C21.5546 10.74 21.5196 10.825 21.4496 10.895C21.3896 10.965 21.3046 11 21.1946 11H19.9496ZM23.9197 11C23.8197 11 23.7347 10.965 23.6647 10.895C23.5947 10.825 23.5597 10.74 23.5597 10.64V0.709999C23.5597 0.599999 23.5947 0.515 23.6647 0.455C23.7347 0.385 23.8197 0.349999 23.9197 0.349999H25.1647C25.2747 0.349999 25.3597 0.385 25.4197 0.455C25.4897 0.515 25.5247 0.599999 25.5247 0.709999V10.64C25.5247 10.74 25.4897 10.825 25.4197 10.895C25.3597 10.965 25.2747 11 25.1647 11H23.9197ZM30.4094 11.15C29.3994 11.15 28.6244 10.825 28.0844 10.175C27.5444 9.525 27.2544 8.66 27.2144 7.58L27.1994 7.085L27.2144 6.605C27.2444 5.555 27.5294 4.7 28.0694 4.04C28.6194 3.38 29.3994 3.05 30.4094 3.05C31.3794 3.05 32.1494 3.38 32.7194 4.04V0.709999C32.7194 0.599999 32.7544 0.515 32.8244 0.455C32.8944 0.385 32.9794 0.349999 33.0794 0.349999H34.3544C34.4644 0.349999 34.5494 0.385 34.6094 0.455C34.6794 0.515 34.7144 0.599999 34.7144 0.709999V10.64C34.7144 10.74 34.6794 10.825 34.6094 10.895C34.5494 10.965 34.4644 11 34.3544 11H33.1694C33.0694 11 32.9844 10.965 32.9144 10.895C32.8444 10.825 32.8094 10.74 32.8094 10.64V10.085C32.2394 10.795 31.4394 11.15 30.4094 11.15ZM30.9644 9.545C31.5444 9.545 31.9744 9.36 32.2544 8.99C32.5344 8.62 32.6894 8.165 32.7194 7.625C32.7294 7.505 32.7344 7.31 32.7344 7.04C32.7344 6.78 32.7294 6.59 32.7194 6.47C32.6994 5.97 32.5394 5.545 32.2394 5.195C31.9494 4.835 31.5244 4.655 30.9644 4.655C29.8844 4.655 29.3094 5.32 29.2394 6.65L29.2244 7.1L29.2394 7.55C29.3094 8.88 29.8844 9.545 30.9644 9.545ZM37.4636 11C37.3636 11 37.2836 10.97 37.2236 10.91C37.1636 10.85 37.1336 10.77 37.1336 10.67V0.844999C37.1336 0.744999 37.1636 0.665 37.2236 0.605C37.2836 0.534999 37.3636 0.499999 37.4636 0.499999H40.6586C41.6986 0.499999 42.5186 0.654999 43.1186 0.965C43.7286 1.265 44.1586 1.71 44.4086 2.3C44.6686 2.89 44.8086 3.64 44.8286 4.55C44.8386 4.85 44.8436 5.245 44.8436 5.735C44.8436 6.235 44.8386 6.635 44.8286 6.935C44.8086 7.895 44.6686 8.67 44.4086 9.26C44.1586 9.84 43.7386 10.275 43.1486 10.565C42.5586 10.855 41.7536 11 40.7336 11H37.4636ZM40.6586 10.1C41.4586 10.1 42.0886 9.995 42.5486 9.785C43.0086 9.565 43.3386 9.225 43.5386 8.765C43.7486 8.295 43.8636 7.66 43.8836 6.86C43.8936 6.56 43.8986 6.185 43.8986 5.735C43.8986 5.295 43.8936 4.925 43.8836 4.625C43.8636 3.505 43.5986 2.69 43.0886 2.18C42.5886 1.66 41.7536 1.4 40.5836 1.4H38.0786V10.1H40.6586ZM50.06 11.15C49.02 11.15 48.21 10.835 47.63 10.205C47.06 9.565 46.76 8.74 46.73 7.73L46.715 7.1L46.73 6.47C46.76 5.46 47.06 4.64 47.63 4.01C48.21 3.37 49.02 3.05 50.06 3.05C51.1 3.05 51.905 3.37 52.475 4.01C53.055 4.64 53.36 5.46 53.39 6.47C53.4 6.57 53.405 6.78 53.405 7.1C53.405 7.42 53.4 7.63 53.39 7.73C53.36 8.74 53.055 9.565 52.475 10.205C51.905 10.835 51.1 11.15 50.06 11.15ZM50.06 10.28C50.77 10.28 51.34 10.055 51.77 9.605C52.21 9.145 52.445 8.495 52.475 7.655C52.485 7.555 52.49 7.37 52.49 7.1C52.49 6.83 52.485 6.645 52.475 6.545C52.445 5.705 52.21 5.06 51.77 4.61C51.34 4.15 50.77 3.92 50.06 3.92C49.35 3.92 48.775 4.15 48.335 4.61C47.905 5.06 47.675 5.705 47.645 6.545L47.63 7.1L47.645 7.655C47.675 8.495 47.905 9.145 48.335 9.605C48.775 10.055 49.35 10.28 50.06 10.28ZM58.4093 11.15C57.3693 11.15 56.5643 10.85 55.9943 10.25C55.4243 9.64 55.1243 8.79 55.0943 7.7L55.0793 7.1L55.0943 6.5C55.1243 5.41 55.4243 4.565 55.9943 3.965C56.5643 3.355 57.3693 3.05 58.4093 3.05C59.0693 3.05 59.6293 3.17 60.0893 3.41C60.5593 3.64 60.9093 3.94 61.1393 4.31C61.3693 4.67 61.4943 5.045 61.5143 5.435C61.5243 5.525 61.4943 5.605 61.4243 5.675C61.3543 5.735 61.2743 5.765 61.1843 5.765H60.9743C60.8743 5.765 60.7993 5.745 60.7493 5.705C60.7093 5.655 60.6643 5.57 60.6143 5.45C60.4143 4.9 60.1343 4.51 59.7743 4.28C59.4143 4.04 58.9593 3.92 58.4093 3.92C57.6893 3.92 57.1143 4.14 56.6843 4.58C56.2643 5.01 56.0393 5.675 56.0093 6.575L55.9943 7.1L56.0093 7.625C56.0393 8.525 56.2643 9.195 56.6843 9.635C57.1143 10.065 57.6893 10.28 58.4093 10.28C58.9593 10.28 59.4143 10.165 59.7743 9.935C60.1343 9.695 60.4143 9.3 60.6143 8.75C60.6643 8.63 60.7093 8.55 60.7493 8.51C60.7993 8.46 60.8743 8.435 60.9743 8.435H61.1843C61.2743 8.435 61.3543 8.47 61.4243 8.54C61.4943 8.6 61.5243 8.675 61.5143 8.765C61.4943 9.155 61.3693 9.535 61.1393 9.905C60.9093 10.265 60.5593 10.565 60.0893 10.805C59.6293 11.035 59.0693 11.15 58.4093 11.15ZM66.4213 11.15C65.4413 11.15 64.6963 10.84 64.1863 10.22C63.6763 9.6 63.4213 8.79 63.4213 7.79V3.53C63.4213 3.43 63.4513 3.35 63.5113 3.29C63.5713 3.23 63.6513 3.2 63.7513 3.2H64.0063C64.1063 3.2 64.1863 3.23 64.2463 3.29C64.3063 3.35 64.3363 3.43 64.3363 3.53V7.715C64.3363 9.425 65.0813 10.28 66.5713 10.28C67.2913 10.28 67.8613 10.055 68.2813 9.605C68.7113 9.145 68.9263 8.515 68.9263 7.715V3.53C68.9263 3.43 68.9563 3.35 69.0163 3.29C69.0763 3.23 69.1563 3.2 69.2563 3.2H69.5113C69.6113 3.2 69.6913 3.23 69.7513 3.29C69.8113 3.35 69.8413 3.43 69.8413 3.53V10.67C69.8413 10.77 69.8113 10.85 69.7513 10.91C69.6913 10.97 69.6113 11 69.5113 11H69.2563C69.1563 11 69.0763 10.97 69.0163 10.91C68.9563 10.85 68.9263 10.77 68.9263 10.67V9.965C68.6263 10.355 68.2813 10.65 67.8913 10.85C67.5113 11.05 67.0213 11.15 66.4213 11.15ZM72.6007 11C72.5007 11 72.4207 10.97 72.3607 10.91C72.3007 10.85 72.2707 10.77 72.2707 10.67V3.53C72.2707 3.43 72.3007 3.35 72.3607 3.29C72.4207 3.23 72.5007 3.2 72.6007 3.2H72.8557C72.9557 3.2 73.0357 3.23 73.0957 3.29C73.1557 3.35 73.1857 3.43 73.1857 3.53V4.055C73.4457 3.725 73.7457 3.475 74.0857 3.305C74.4357 3.135 74.8507 3.05 75.3307 3.05C76.4507 3.05 77.2507 3.52 77.7307 4.46C77.9707 4.03 78.3107 3.69 78.7507 3.44C79.2007 3.18 79.7107 3.05 80.2807 3.05C81.1107 3.05 81.7857 3.335 82.3057 3.905C82.8257 4.465 83.0857 5.265 83.0857 6.305V10.67C83.0857 10.77 83.0557 10.85 82.9957 10.91C82.9357 10.97 82.8557 11 82.7557 11H82.5007C82.4007 11 82.3207 10.97 82.2607 10.91C82.2007 10.85 82.1707 10.77 82.1707 10.67V6.455C82.1707 5.545 81.9807 4.895 81.6007 4.505C81.2307 4.115 80.7407 3.92 80.1307 3.92C79.5907 3.92 79.1207 4.12 78.7207 4.52C78.3307 4.91 78.1357 5.555 78.1357 6.455V10.67C78.1357 10.77 78.1057 10.85 78.0457 10.91C77.9857 10.97 77.9057 11 77.8057 11H77.5507C77.4507 11 77.3707 10.97 77.3107 10.91C77.2507 10.85 77.2207 10.77 77.2207 10.67V6.455C77.2207 5.555 77.0257 4.91 76.6357 4.52C76.2457 4.12 75.7607 3.92 75.1807 3.92C74.6407 3.92 74.1707 4.12 73.7707 4.52C73.3807 4.91 73.1857 5.55 73.1857 6.44V10.67C73.1857 10.77 73.1557 10.85 73.0957 10.91C73.0357 10.97 72.9557 11 72.8557 11H72.6007ZM88.3346 11.15C87.3846 11.15 86.6196 10.84 86.0396 10.22C85.4596 9.59 85.1296 8.75 85.0496 7.7L85.0346 7.1L85.0496 6.5C85.1296 5.46 85.4546 4.625 86.0246 3.995C86.6046 3.365 87.3746 3.05 88.3346 3.05C89.3746 3.05 90.1846 3.395 90.7646 4.085C91.3546 4.775 91.6496 5.72 91.6496 6.92V7.145C91.6496 7.245 91.6146 7.325 91.5446 7.385C91.4846 7.445 91.4046 7.475 91.3046 7.475H85.9646V7.625C85.9846 8.095 86.0896 8.535 86.2796 8.945C86.4796 9.345 86.7546 9.67 87.1046 9.92C87.4546 10.16 87.8646 10.28 88.3346 10.28C88.8846 10.28 89.3296 10.175 89.6696 9.965C90.0196 9.745 90.2696 9.525 90.4196 9.305C90.5096 9.185 90.5746 9.11 90.6146 9.08C90.6646 9.05 90.7496 9.035 90.8696 9.035H91.1096C91.1996 9.035 91.2746 9.06 91.3346 9.11C91.3946 9.16 91.4246 9.225 91.4246 9.305C91.4246 9.515 91.2896 9.77 91.0196 10.07C90.7596 10.36 90.3946 10.615 89.9246 10.835C89.4546 11.045 88.9246 11.15 88.3346 11.15ZM90.7346 6.635V6.575C90.7346 5.805 90.5146 5.17 90.0746 4.67C89.6446 4.17 89.0646 3.92 88.3346 3.92C87.6046 3.92 87.0246 4.17 86.5946 4.67C86.1746 5.17 85.9646 5.805 85.9646 6.575V6.635H90.7346ZM93.9581 11C93.8581 11 93.7781 10.97 93.7181 10.91C93.6581 10.85 93.6281 10.77 93.6281 10.67V3.53C93.6281 3.43 93.6581 3.35 93.7181 3.29C93.7781 3.23 93.8581 3.2 93.9581 3.2H94.2131C94.3131 3.2 94.3931 3.23 94.4531 3.29C94.5131 3.35 94.5431 3.43 94.5431 3.53V4.235C94.8431 3.845 95.1831 3.55 95.5631 3.35C95.9531 3.15 96.4531 3.05 97.0631 3.05C98.0431 3.05 98.7981 3.365 99.3281 3.995C99.8581 4.615 100.123 5.42 100.123 6.41V10.67C100.123 10.77 100.093 10.85 100.033 10.91C99.9731 10.97 99.8931 11 99.7931 11H99.5381C99.4381 11 99.3581 10.97 99.2981 10.91C99.2381 10.85 99.2081 10.77 99.2081 10.67V6.485C99.2081 5.675 99.0081 5.045 98.6081 4.595C98.2181 4.145 97.6531 3.92 96.9131 3.92C96.1931 3.92 95.6181 4.15 95.1881 4.61C94.7581 5.06 94.5431 5.685 94.5431 6.485V10.67C94.5431 10.77 94.5131 10.85 94.4531 10.91C94.3931 10.97 94.3131 11 94.2131 11H93.9581ZM104.984 11C104.244 11 103.719 10.78 103.409 10.34C103.099 9.89 102.944 9.275 102.944 8.495V4.07H101.774C101.674 4.07 101.594 4.04 101.534 3.98C101.474 3.92 101.444 3.84 101.444 3.74V3.53C101.444 3.43 101.474 3.35 101.534 3.29C101.594 3.23 101.674 3.2 101.774 3.2H102.944V0.68C102.944 0.58 102.974 0.5 103.034 0.439999C103.094 0.379999 103.174 0.349999 103.274 0.349999H103.529C103.629 0.349999 103.709 0.379999 103.769 0.439999C103.829 0.5 103.859 0.58 103.859 0.68V3.2H105.719C105.819 3.2 105.899 3.23 105.959 3.29C106.019 3.35 106.049 3.43 106.049 3.53V3.74C106.049 3.84 106.019 3.92 105.959 3.98C105.899 4.04 105.819 4.07 105.719 4.07H103.859V8.435C103.859 8.995 103.949 9.42 104.129 9.71C104.319 9.99 104.629 10.13 105.059 10.13H105.869C105.969 10.13 106.049 10.16 106.109 10.22C106.169 10.28 106.199 10.36 106.199 10.46V10.67C106.199 10.77 106.169 10.85 106.109 10.91C106.049 10.97 105.969 11 105.869 11H104.984ZM110.224 11.15C109.574 11.15 109.024 11.04 108.574 10.82C108.134 10.6 107.799 10.35 107.569 10.07C107.349 9.79 107.239 9.565 107.239 9.395C107.239 9.305 107.274 9.235 107.344 9.185C107.414 9.125 107.489 9.095 107.569 9.095H107.794C107.864 9.095 107.919 9.11 107.959 9.14C108.009 9.16 108.064 9.21 108.124 9.29C108.344 9.6 108.609 9.845 108.919 10.025C109.239 10.195 109.674 10.28 110.224 10.28C110.844 10.28 111.344 10.165 111.724 9.935C112.104 9.695 112.294 9.355 112.294 8.915C112.294 8.645 112.214 8.425 112.054 8.255C111.904 8.085 111.654 7.94 111.304 7.82C110.964 7.69 110.454 7.545 109.774 7.385C108.884 7.185 108.274 6.91 107.944 6.56C107.624 6.21 107.464 5.765 107.464 5.225C107.464 4.855 107.564 4.505 107.764 4.175C107.974 3.845 108.279 3.575 108.679 3.365C109.089 3.155 109.579 3.05 110.149 3.05C110.749 3.05 111.254 3.155 111.664 3.365C112.084 3.565 112.394 3.8 112.594 4.07C112.804 4.34 112.909 4.56 112.909 4.73C112.909 4.82 112.874 4.895 112.804 4.955C112.744 5.005 112.669 5.03 112.579 5.03H112.354C112.214 5.03 112.104 4.965 112.024 4.835C111.824 4.535 111.594 4.31 111.334 4.16C111.084 4 110.689 3.92 110.149 3.92C109.569 3.92 109.129 4.04 108.829 4.28C108.529 4.52 108.379 4.835 108.379 5.225C108.379 5.465 108.439 5.665 108.559 5.825C108.679 5.985 108.904 6.135 109.234 6.275C109.564 6.405 110.044 6.54 110.674 6.68C111.604 6.89 112.259 7.17 112.639 7.52C113.019 7.87 113.209 8.335 113.209 8.915C113.209 9.325 113.094 9.7 112.864 10.04C112.634 10.38 112.294 10.65 111.844 10.85C111.394 11.05 110.854 11.15 110.224 11.15Z"
          fill="#0D6797"/>
</svg>
